# xmcd
#
# Track frame offsets:
#	150
#	21345
#	36919
#	59024
#	79491
#	93369
#	119524
#	137251
#	160046
#
# Disc length: 2447 seconds
#
# Revision: 0
# Processed by: cddbd v1.5.2PL0 Copyright (c) Steve Scherf et al.
# Submitted via: audiograbber 1.83.01
#
DISCID=75098d09
DTITLE=Rescue - Rescue
DYEAR=1990
DGENRE=Melodic Hard Rock
TTITLE0=Don't Call Me Crazy
TTITLE1=Face To Face
TTITLE2=Into The Night
TTITLE3=Hold On
TTITLE4=Be There For You
TTITLE5=The Appearance (Intro) Feels Like The First Time
TTITLE6=Sometimes
TTITLE7=Fire's Still Burning
TTITLE8=Deeper
EXTD=
EXTT0=
EXTT1=
EXTT2=
EXTT3=
EXTT4=
EXTT5=
EXTT6=
EXTT7=
EXTT8=
PLAYORDER=
